<svg aria-hidden="true" style="position: absolute; width: 0; height: 0; overflow: hidden;" version="1.1" xmlns="http://www.w3.org/2000/svg" xmlns:xlink="http://www.w3.org/1999/xlink">
<defs>


<svg version="1.1" id="icon-globe" xmlns="http://www.w3.org/2000/svg" xmlns:xlink="http://www.w3.org/1999/xlink" x="0px" y="0px"
	 viewBox="0 0 512 512" style="enable-background:new 0 0 512 512;" xml:space="preserve">
<circle style="fill:#2BA5F7;" cx="229.83" cy="228.642" r="215.724"/>
<path style="fill:#2197D8;" d="M289.261,384.931c-119.138,0-215.719-96.58-215.719-215.719c0-44.377,13.407-85.62,36.382-119.912
	c-57.77,38.705-95.805,104.577-95.805,179.337c0,119.138,96.58,215.719,215.719,215.719c74.761,0,140.632-38.036,179.337-95.806
	C374.882,371.524,333.638,384.931,289.261,384.931z"/>
<circle style="fill:#A0D5F2;" cx="397.123" cy="320.66" r="100.758"/>
<path style="fill:#BEE9FC;" d="M397.161,389.146c-27.955-0.003-52.848-16.723-63.418-42.6c-6.916-16.93-6.825-35.538,0.256-52.399
	c7.081-16.86,20.304-29.955,37.232-36.87c8.301-3.391,16.999-5.11,25.854-5.11c27.951,0,52.844,16.722,63.415,42.6
	c14.275,34.947-2.542,74.992-37.489,89.268c-8.301,3.391-16.997,5.111-25.846,5.111
	C397.164,389.146,397.163,389.146,397.161,389.146z"/>
<path style="fill:#FFFFFF;" d="M448.365,312.648c1.626,0,3.281-0.309,4.879-0.962c6.605-2.697,9.771-10.239,7.075-16.844
	c-6.896-16.88-19.952-30.065-36.764-37.126c-16.813-7.061-35.368-7.153-52.248-0.256c-6.605,2.697-9.771,10.239-7.075,16.844
	c2.699,6.604,10.243,9.774,16.844,7.074c21.663-8.846,46.479,1.576,55.324,23.235C438.445,309.617,443.273,312.648,448.365,312.648z
	"/>
<g>
	<path style="fill:#333333;" d="M451.794,420.318c49.981-27.361,72.614-88.672,50.562-142.645
		c-17.969-44-60.548-70.702-105.388-70.702c-14.288,0-28.808,2.713-42.837,8.449c-28.11,11.484-50.059,33.226-61.814,61.22
		c-11.756,27.994-11.911,58.895-0.426,87.005c11.484,28.11,33.226,50.059,61.22,61.827c14.171,5.942,29.079,8.927,44,8.927
		c10.335,0,20.669-1.46,30.759-4.315l30.177,73.88c2.041,4.999,6.873,8.035,11.962,8.035c1.628,0,3.281-0.31,4.883-0.956
		c6.601-2.7,9.766-10.244,7.079-16.846L451.794,420.318z M363.109,401.651c-21.625-9.095-38.432-26.056-47.307-47.772
		c-8.875-21.729-8.759-45.602,0.336-67.227c9.082-21.638,26.043-38.445,47.772-47.307c10.839-4.431,22.052-6.524,33.097-6.524
		c34.647,0,67.55,20.618,81.437,54.619c4.418,10.839,6.524,22.052,6.524,33.097c0,34.647-20.631,67.55-54.632,81.437
		C408.62,410.849,384.747,410.733,363.109,401.651z"/>
	<path style="fill:#333333;" d="M455.243,190.139c-8.126-47.901-30.914-91.229-65.884-125.295
		C346.896,23.479,290.882,0.459,231.626,0.019c-1.188-0.026-2.377-0.026-3.565,0C167.383,0.472,110.4,24.448,67.614,67.518
		C24.79,110.639,1.201,167.855,1.201,228.636c0,62.228,24.545,120.399,69.126,163.805c42.463,41.352,98.477,64.372,157.733,64.811
		c0.594,0.013,1.188,0.013,1.783,0.013s1.188,0,1.783-0.013c30.797-0.22,60.665-6.485,88.749-18.615
		c6.55-2.829,9.573-10.425,6.743-16.975s-10.425-9.573-16.975-6.743c-21.444,9.25-44.065,14.649-67.382,16.096v-95.673
		c4.689,0.284,9.366,0.736,13.978,1.344c7.066,0.943,13.564-4.031,14.507-11.097c0.943-7.079-4.031-13.577-11.11-14.507
		c-5.736-0.762-11.549-1.279-17.375-1.615v-67.912h51.828c7.131,0,12.918-5.775,12.918-12.918c0-7.131-5.787-12.918-12.918-12.918
		h-51.828v-67.899c7.661-0.426,15.244-1.24,22.749-2.416c20.54-3.204,40.422-9.172,59.166-17.724
		c6.304,19.881,10.696,41.3,13.009,63.959c0.052,0.491,0.129,0.982,0.233,1.46c1.382,6.33,7.312,10.748,13.926,10.076
		c7.092-0.723,12.259-7.066,11.536-14.159c-0.078-0.814-0.168-1.641-0.271-2.454c-2.7-25.191-7.829-49.051-15.218-71.141
		c3.811-2.299,7.544-4.715,11.226-7.26c7.157-4.909,14.068-10.27,20.695-16.045c26.237,28.743,43.432,63.881,49.955,102.352
		c1.189,7.028,7.867,11.769,14.895,10.567C451.703,203.845,456.431,197.179,455.243,190.139z M151.429,41.5
		c-11.433,13.551-21.625,30.151-30.151,49.4c-7.919-5.038-15.528-10.645-22.762-16.807C114.534,60.439,132.361,49.484,151.429,41.5z
		 M79.874,92.127c10.038,8.746,20.721,16.523,31.934,23.305c-10.218,30.604-16.122,64.837-17.272,100.285H27.451
		C30.332,169.586,48.637,126.374,79.874,92.127z M27.451,241.554h67.085c1.15,35.474,7.053,69.733,17.298,100.35
		c-11.291,6.808-21.974,14.598-31.947,23.266C48.624,330.936,30.332,287.815,27.451,241.554z M98.528,383.178
		c7.196-6.11,14.792-11.717,22.762-16.768c8.526,19.223,18.719,35.771,30.139,49.322C132.374,407.736,114.534,396.82,98.528,383.178
		z M216.925,429.956c-28.369-6.42-54.658-33.717-72.898-76.012c22.814-10.658,47.63-16.988,72.898-18.602V429.956z M216.925,309.466
		c-28.356,1.602-56.234,8.474-81.928,20.191c-8.565-26.986-13.538-56.983-14.624-88.103h96.552V309.466z M216.925,215.717h-96.552
		c1.085-31.094,6.059-61.078,14.611-88.039c25.591,11.678,53.288,18.538,81.941,20.14V215.717z M216.925,121.93
		c-25.527-1.602-50.175-7.919-72.911-18.551c18.228-42.321,44.517-69.643,72.911-76.063V121.93z M254.776,120.819
		c-3.979,0.491-7.984,0.853-12.014,1.111V27.303c19.688,4.457,38.38,18.977,54.063,41.597c6.924,9.973,13.267,21.522,18.848,34.479
		C296.528,112.332,276.013,118.222,254.776,120.819z M340.902,89.272c-0.827,0.555-1.654,1.085-2.493,1.615
		c-0.827-1.86-1.666-3.682-2.519-5.49c-7.971-16.884-17.272-31.598-27.568-43.832c19.029,7.996,36.843,18.912,52.836,32.528
		C354.686,79.609,347.93,84.673,340.902,89.272z"/>
</g>
<ellipse transform="matrix(-0.7071 -0.7071 0.7071 -0.7071 445.4162 446.0893)" style="fill:#6EC6ED;" cx="315.096" cy="130.796" rx="73.841" ry="48.146"/>
<path style="fill:#4D4D4D;" d="M363.109,186.561c-6.885,4.857-15.605,6.963-25.191,6.537c-0.103-0.478-0.181-0.969-0.233-1.46
	c-2.312-22.659-6.705-44.077-13.009-63.959c-18.745,8.552-38.626,14.52-59.166,17.724c-5.064-8.126-8.681-16.497-10.735-24.584
	c21.238-2.597,41.752-8.487,60.897-17.44c-5.581-12.957-11.924-24.506-18.848-34.479c12.57,1.55,26.276,7.183,39.065,16.497
	c0.853,1.809,1.692,3.63,2.519,5.49c0.84-0.53,1.666-1.059,2.493-1.615c2.816,2.312,5.581,4.806,8.255,7.48
	c3.669,3.669,6.989,7.48,9.96,11.407c-3.682,2.545-7.415,4.961-11.226,7.26C355.28,137.51,360.409,161.37,363.109,186.561z"/>

</svg>

<svg id="icon-walk" viewBox="0 0 1024 1024" version="1.1" xmlns="http://www.w3.org/2000/svg"><path d="M770.885205 65.808248c68.765384 0 124.551341 55.785957 124.551341 124.551341 0 68.861291-55.785957 124.647248-124.551341 124.647248-68.861291 0-124.647248-55.785957-124.647248-124.647248 0-68.765384 55.785957-124.551341 124.647248-124.551341z" fill="#5FCEFF" /><path d="M770.885205 337.385158c-81.070263 0-147.025569-65.955306-147.025569-147.025569 0-81.015916 65.955306-146.929662 147.025569-146.929662 81.019113 0 146.929662 65.913746 146.929662 146.929662 0 81.070263-65.910549 147.025569-146.929662 147.025569z m0-249.198589c-56.393369 0-102.268927 45.833998-102.268927 102.17302 0 56.390172 45.878755 102.268927 102.268927 102.268927 56.339022 0 102.17302-45.878755 102.17302-102.268927 0-56.335825-45.830801-102.17302-102.17302-102.17302zM376.966014 425.299991a22.378321 22.378321 0 0 1-15.319559-38.695314l37.595579-35.293809c38.541863-36.150579 88.851525-55.133789 141.654772-53.423446 52.816034 1.697555 101.805376 23.868078 137.939971 62.429121a22.378321 22.378321 0 1 1-32.656364 30.603953c-27.960114-29.833499-65.865793-46.98808-106.72541-48.302008-40.837239-1.326715-79.775517 13.363055-109.589835 41.329562l-37.589185 35.287416a22.292005 22.292005 0 0 1-15.309969 6.064525z" fill="#4F46A3" /><path d="M794.986657 458.154563a200.190066 200.190066 0 0 1-6.49291-0.105498c-52.809641-1.694359-101.805376-23.861684-137.955955-62.422728a22.378321 22.378321 0 1 1 32.64997-30.610346c27.976098 29.836696 65.881777 46.991277 106.741394 48.302007 40.907571 1.281958 79.781911-13.382236 109.605819-41.358334l37.589186-35.287415a22.378321 22.378321 0 0 1 31.633355 1.00063 22.378321 22.378321 0 0 1-1.00063 31.633356l-37.59558 35.293809c-36.972183 34.670413-84.756292 53.554519-135.174649 53.554519z" fill="#4F46A3" /><path d="M340.371066 859.231619a196.660685 196.660685 0 0 1-73.762143-14.366882l-47.832063-19.309294a22.378321 22.378321 0 0 1-12.372015-29.13018 22.375124 22.375124 0 0 1 29.126984-12.372015l47.825668 19.309295c78.241004 31.56622 167.636003-6.397003 199.262964-84.631614 0.156648-0.390022 0.329281-0.773651 0.508308-1.157278l161.766489-342.995723a22.378321 22.378321 0 0 1 40.479186 19.091904l-161.504343 342.442659c-31.24653 76.559433-105.395498 123.112735-183.499035 123.119128z" fill="#4F46A3" /><path d="M740.204527 987.574487a22.378321 22.378321 0 0 1-19.350854-33.583466l25.830976-44.660735c42.06485-72.764709 17.352789-166.146246-55.047473-208.665055l-105.967743-48.976554a22.378321 22.378321 0 1 1 18.775411-40.629441l106.933209 49.424121c0.620199 0.287721 1.230808 0.601018 1.819037 0.946283 94.407742 54.638269 126.811551 175.8968 72.234024 270.307739l-25.834174 44.663932a22.371927 22.371927 0 0 1-19.392413 11.173176zM291.797321 686.135306h-217.389404a22.378321 22.378321 0 1 1 0-44.756642h217.389404a22.378321 22.378321 0 1 1 0 44.756642zM446.143798 262.993225h-310.994724a22.378321 22.378321 0 1 1 0-44.756642h310.994724a22.378321 22.378321 0 1 1 0 44.756642zM542.050888 190.615341h-207.670819a22.378321 22.378321 0 1 1 0-44.756642h207.670819a22.378321 22.378321 0 1 1 0 44.756642zM366.349099 605.317599h-199.230995a22.378321 22.378321 0 1 1 0-44.756642h199.230995a22.378321 22.378321 0 1 1 0 44.756642z" fill="#4F46A3" /></svg>

<svg id="icon-delete"xmlns="http://www.w3.org/2000/svg"  viewBox="0 0 24 24" width="24px" height="24px"><path d="M 10 2 L 9 3 L 4 3 L 4 5 L 5 5 L 5 20 C 5 20.522222 5.1913289 21.05461 5.5683594 21.431641 C 5.9453899 21.808671 6.4777778 22 7 22 L 17 22 C 17.522222 22 18.05461 21.808671 18.431641 21.431641 C 18.808671 21.05461 19 20.522222 19 20 L 19 5 L 20 5 L 20 3 L 15 3 L 14 2 L 10 2 z M 7 5 L 17 5 L 17 20 L 7 20 L 7 5 z M 9 7 L 9 18 L 11 18 L 11 7 L 9 7 z M 13 7 L 13 18 L 15 18 L 15 7 L 13 7 z"/></svg>
<symbol id="icon-alert-circle" viewBox="0 0 24 24">
<path d="M23 12c0-3.037-1.232-5.789-3.222-7.778s-4.741-3.222-7.778-3.222-5.789 1.232-7.778 3.222-3.222 4.741-3.222 7.778 1.232 5.789 3.222 7.778 4.741 3.222 7.778 3.222 5.789-1.232 7.778-3.222 3.222-4.741 3.222-7.778zM21 12c0 2.486-1.006 4.734-2.636 6.364s-3.878 2.636-6.364 2.636-4.734-1.006-6.364-2.636-2.636-3.878-2.636-6.364 1.006-4.734 2.636-6.364 3.878-2.636 6.364-2.636 4.734 1.006 6.364 2.636 2.636 3.878 2.636 6.364zM11 8v4c0 0.552 0.448 1 1 1s1-0.448 1-1v-4c0-0.552-0.448-1-1-1s-1 0.448-1 1zM12 17c0.552 0 1-0.448 1-1s-0.448-1-1-1-1 0.448-1 1 0.448 1 1 1z"></path>
</symbol>
<symbol id="icon-alert-triangle" viewBox="0 0 24 24">
<path d="M11.148 4.374c0.073-0.123 0.185-0.242 0.334-0.332 0.236-0.143 0.506-0.178 0.756-0.116s0.474 0.216 0.614 0.448l8.466 14.133c0.070 0.12 0.119 0.268 0.128 0.434-0.015 0.368-0.119 0.591-0.283 0.759-0.18 0.184-0.427 0.298-0.693 0.301l-16.937-0.001c-0.152-0.001-0.321-0.041-0.481-0.134-0.239-0.138-0.399-0.359-0.466-0.607s-0.038-0.519 0.092-0.745zM9.432 3.346l-8.47 14.14c-0.422 0.731-0.506 1.55-0.308 2.29s0.68 1.408 1.398 1.822c0.464 0.268 0.976 0.4 1.475 0.402h16.943c0.839-0.009 1.587-0.354 2.123-0.902s0.864-1.303 0.855-2.131c-0.006-0.536-0.153-1.044-0.406-1.474l-8.474-14.147c-0.432-0.713-1.11-1.181-1.854-1.363s-1.561-0.081-2.269 0.349c-0.429 0.26-0.775 0.615-1.012 1.014zM11 9v4c0 0.552 0.448 1 1 1s1-0.448 1-1v-4c0-0.552-0.448-1-1-1s-1 0.448-1 1zM12 18c0.552 0 1-0.448 1-1s-0.448-1-1-1-1 0.448-1 1 0.448 1 1 1z"></path>
</symbol>
<symbol id="icon-arrow-left" viewBox="0 0 24 24">
<path d="M12.707 18.293l-5.293-5.293h11.586c0.552 0 1-0.448 1-1s-0.448-1-1-1h-11.586l5.293-5.293c0.391-0.391 0.391-1.024 0-1.414s-1.024-0.391-1.414 0l-7 7c-0.096 0.096-0.168 0.206-0.217 0.324-0.051 0.122-0.076 0.253-0.076 0.383 0 0.256 0.098 0.512 0.293 0.707l7 7c0.391 0.391 1.024 0.391 1.414 0s0.391-1.024 0-1.414z"></path>
</symbol>
<symbol id="icon-arrow-right" viewBox="0 0 24 24">
<path d="M11.293 5.707l5.293 5.293h-11.586c-0.552 0-1 0.448-1 1s0.448 1 1 1h11.586l-5.293 5.293c-0.391 0.391-0.391 1.024 0 1.414s1.024 0.391 1.414 0l7-7c0.092-0.092 0.166-0.202 0.217-0.324 0.101-0.245 0.101-0.521 0-0.766-0.049-0.118-0.121-0.228-0.217-0.324l-7-7c-0.391-0.391-1.024-0.391-1.414 0s-0.391 1.024 0 1.414z"></path>
</symbol>
<symbol id="icon-bookmark" viewBox="0 0 24 24">
<path d="M18.419 21.814c0.161 0.116 0.363 0.186 0.581 0.186 0.552 0 1-0.448 1-1v-16c0-0.828-0.337-1.58-0.879-2.121s-1.293-0.879-2.121-0.879h-10c-0.828 0-1.58 0.337-2.121 0.879s-0.879 1.293-0.879 2.121v16c-0.001 0.199 0.060 0.404 0.186 0.581 0.321 0.449 0.946 0.554 1.395 0.232l6.419-4.584zM18 19.057l-5.419-3.871c-0.355-0.254-0.819-0.242-1.162 0l-5.419 3.871v-14.057c0-0.276 0.111-0.525 0.293-0.707s0.431-0.293 0.707-0.293h10c0.276 0 0.525 0.111 0.707 0.293s0.293 0.431 0.293 0.707z"></path>
</symbol>

<symbol id="icon-bookmark-fill" viewBox="0 0 24 24">
<polygon points="18.419 21.814, 19.000 22.000, 20.000 21.000, 20.000 5.000, 19.121 2.879, 17.000 2.000, 7.000 2.000, 4.879 2.879, 4.000 5.000, 4.000 21.000, 4.186 21.581, 5.581 21.813, 12.000 17.229" />
</symbol>

<symbol id="icon-check" viewBox="0 0 24 24">
<path d="M19.293 5.293l-10.293 10.293-4.293-4.293c-0.391-0.391-1.024-0.391-1.414 0s-0.391 1.024 0 1.414l5 5c0.391 0.391 1.024 0.391 1.414 0l11-11c0.391-0.391 0.391-1.024 0-1.414s-1.024-0.391-1.414 0z"></path>
</symbol>
<symbol id="icon-clock" viewBox="0 0 24 24">
<path d="M23 12c0-3.037-1.232-5.789-3.222-7.778s-4.741-3.222-7.778-3.222-5.789 1.232-7.778 3.222-3.222 4.741-3.222 7.778 1.232 5.789 3.222 7.778 4.741 3.222 7.778 3.222 5.789-1.232 7.778-3.222 3.222-4.741 3.222-7.778zM21 12c0 2.486-1.006 4.734-2.636 6.364s-3.878 2.636-6.364 2.636-4.734-1.006-6.364-2.636-2.636-3.878-2.636-6.364 1.006-4.734 2.636-6.364 3.878-2.636 6.364-2.636 4.734 1.006 6.364 2.636 2.636 3.878 2.636 6.364zM11 6v6c0 0.389 0.222 0.727 0.553 0.894l4 2c0.494 0.247 1.095 0.047 1.342-0.447s0.047-1.095-0.447-1.342l-3.448-1.723v-5.382c0-0.552-0.448-1-1-1s-1 0.448-1 1z"></path>
</symbol>
<symbol id="icon-edit" viewBox="0 0 24 24">
<path d="M11 3h-7c-0.828 0-1.58 0.337-2.121 0.879s-0.879 1.293-0.879 2.121v14c0 0.828 0.337 1.58 0.879 2.121s1.293 0.879 2.121 0.879h14c0.828 0 1.58-0.337 2.121-0.879s0.879-1.293 0.879-2.121v-7c0-0.552-0.448-1-1-1s-1 0.448-1 1v7c0 0.276-0.111 0.525-0.293 0.707s-0.431 0.293-0.707 0.293h-14c-0.276 0-0.525-0.111-0.707-0.293s-0.293-0.431-0.293-0.707v-14c0-0.276 0.111-0.525 0.293-0.707s0.431-0.293 0.707-0.293h7c0.552 0 1-0.448 1-1s-0.448-1-1-1zM17.793 1.793l-9.5 9.5c-0.122 0.121-0.217 0.28-0.263 0.465l-1 4c-0.039 0.15-0.042 0.318 0 0.485 0.134 0.536 0.677 0.862 1.213 0.728l4-1c0.167-0.041 0.33-0.129 0.465-0.263l9.5-9.5c0.609-0.609 0.914-1.41 0.914-2.207s-0.305-1.598-0.914-2.207-1.411-0.915-2.208-0.915-1.598 0.305-2.207 0.914zM19.207 3.207c0.219-0.219 0.504-0.328 0.793-0.328s0.574 0.109 0.793 0.328 0.328 0.504 0.328 0.793-0.109 0.574-0.328 0.793l-9.304 9.304-2.114 0.529 0.529-2.114z"></path>
</symbol>
<symbol id="icon-loader" viewBox="0 0 24 24">
<path d="M11 2v4c0 0.552 0.448 1 1 1s1-0.448 1-1v-4c0-0.552-0.448-1-1-1s-1 0.448-1 1zM11 18v4c0 0.552 0.448 1 1 1s1-0.448 1-1v-4c0-0.552-0.448-1-1-1s-1 0.448-1 1zM4.223 5.637l2.83 2.83c0.391 0.391 1.024 0.391 1.414 0s0.391-1.024 0-1.414l-2.83-2.83c-0.391-0.391-1.024-0.391-1.414 0s-0.391 1.024 0 1.414zM15.533 16.947l2.83 2.83c0.391 0.391 1.024 0.391 1.414 0s0.391-1.024 0-1.414l-2.83-2.83c-0.391-0.391-1.024-0.391-1.414 0s-0.391 1.024 0 1.414zM2 13h4c0.552 0 1-0.448 1-1s-0.448-1-1-1h-4c-0.552 0-1 0.448-1 1s0.448 1 1 1zM18 13h4c0.552 0 1-0.448 1-1s-0.448-1-1-1h-4c-0.552 0-1 0.448-1 1s0.448 1 1 1zM5.637 19.777l2.83-2.83c0.391-0.391 0.391-1.024 0-1.414s-1.024-0.391-1.414 0l-2.83 2.83c-0.391 0.391-0.391 1.024 0 1.414s1.024 0.391 1.414 0zM16.947 8.467l2.83-2.83c0.391-0.391 0.391-1.024 0-1.414s-1.024-0.391-1.414 0l-2.83 2.83c-0.391 0.391-0.391 1.024 0 1.414s1.024 0.391 1.414 0z"></path>
</symbol>
<symbol id="icon-minus-circle" viewBox="0 0 24 24">
<path d="M23 12c0-3.037-1.232-5.789-3.222-7.778s-4.741-3.222-7.778-3.222-5.789 1.232-7.778 3.222-3.222 4.741-3.222 7.778 1.232 5.789 3.222 7.778 4.741 3.222 7.778 3.222 5.789-1.232 7.778-3.222 3.222-4.741 3.222-7.778zM21 12c0 2.486-1.006 4.734-2.636 6.364s-3.878 2.636-6.364 2.636-4.734-1.006-6.364-2.636-2.636-3.878-2.636-6.364 1.006-4.734 2.636-6.364 3.878-2.636 6.364-2.636 4.734 1.006 6.364 2.636 2.636 3.878 2.636 6.364zM8 13h8c0.552 0 1-0.448 1-1s-0.448-1-1-1h-8c-0.552 0-1 0.448-1 1s0.448 1 1 1z"></path>
</symbol>
<symbol id="icon-plus-circle" viewBox="0 0 24 24">
<path d="M23 12c0-3.037-1.232-5.789-3.222-7.778s-4.741-3.222-7.778-3.222-5.789 1.232-7.778 3.222-3.222 4.741-3.222 7.778 1.232 5.789 3.222 7.778 4.741 3.222 7.778 3.222 5.789-1.232 7.778-3.222 3.222-4.741 3.222-7.778zM21 12c0 2.486-1.006 4.734-2.636 6.364s-3.878 2.636-6.364 2.636-4.734-1.006-6.364-2.636-2.636-3.878-2.636-6.364 1.006-4.734 2.636-6.364 3.878-2.636 6.364-2.636 4.734 1.006 6.364 2.636 2.636 3.878 2.636 6.364zM8 13h3v3c0 0.552 0.448 1 1 1s1-0.448 1-1v-3h3c0.552 0 1-0.448 1-1s-0.448-1-1-1h-3v-3c0-0.552-0.448-1-1-1s-1 0.448-1 1v3h-3c-0.552 0-1 0.448-1 1s0.448 1 1 1z"></path>
</symbol>
<symbol id="icon-search" viewBox="0 0 24 24">
<path d="M16.041 15.856c-0.034 0.026-0.067 0.055-0.099 0.087s-0.060 0.064-0.087 0.099c-1.258 1.213-2.969 1.958-4.855 1.958-1.933 0-3.682-0.782-4.95-2.050s-2.050-3.017-2.050-4.95 0.782-3.682 2.050-4.95 3.017-2.050 4.95-2.050 3.682 0.782 4.95 2.050 2.050 3.017 2.050 4.95c0 1.886-0.745 3.597-1.959 4.856zM21.707 20.293l-3.675-3.675c1.231-1.54 1.968-3.493 1.968-5.618 0-2.485-1.008-4.736-2.636-6.364s-3.879-2.636-6.364-2.636-4.736 1.008-6.364 2.636-2.636 3.879-2.636 6.364 1.008 4.736 2.636 6.364 3.879 2.636 6.364 2.636c2.125 0 4.078-0.737 5.618-1.968l3.675 3.675c0.391 0.391 1.024 0.391 1.414 0s0.391-1.024 0-1.414z"></path>
</symbol>
<symbol id="icon-send" viewBox="0 0 24 24">
<path d="M22.963 2.269c0.043-0.151 0.050-0.314 0.015-0.476-0.024-0.113-0.068-0.224-0.131-0.325-0.064-0.102-0.145-0.19-0.238-0.262-0.117-0.090-0.249-0.15-0.386-0.181s-0.282-0.034-0.426-0.004c-0.042 0.009-0.085 0.021-0.126 0.035l-0.021 0.007-19.98 6.993c-0.252 0.088-0.467 0.276-0.584 0.538-0.224 0.505 0.003 1.096 0.508 1.32l8.649 3.844 3.844 8.649c0.108 0.243 0.313 0.443 0.583 0.538 0.521 0.182 1.092-0.092 1.274-0.614l6.993-19.979c0.010-0.027 0.019-0.054 0.027-0.082zM10.779 11.807l-6.068-2.696 13.483-4.72zM19.609 5.806l-4.72 13.483-2.696-6.068z"></path>
</symbol>
<symbol id="icon-smile" viewBox="0 0 24 24">
<path d="M23 12c0-3.037-1.232-5.789-3.222-7.778s-4.741-3.222-7.778-3.222-5.789 1.232-7.778 3.222-3.222 4.741-3.222 7.778 1.232 5.789 3.222 7.778 4.741 3.222 7.778 3.222 5.789-1.232 7.778-3.222 3.222-4.741 3.222-7.778zM21 12c0 2.486-1.006 4.734-2.636 6.364s-3.878 2.636-6.364 2.636-4.734-1.006-6.364-2.636-2.636-3.878-2.636-6.364 1.006-4.734 2.636-6.364 3.878-2.636 6.364-2.636 4.734 1.006 6.364 2.636 2.636 3.878 2.636 6.364zM7.2 14.6c0 0 0.131 0.173 0.331 0.383 0.145 0.153 0.338 0.341 0.577 0.54 0.337 0.281 0.772 0.59 1.297 0.853 0.705 0.352 1.579 0.624 2.595 0.624s1.89-0.272 2.595-0.624c0.525-0.263 0.96-0.572 1.297-0.853 0.239-0.199 0.432-0.387 0.577-0.54 0.2-0.21 0.331-0.383 0.331-0.383 0.331-0.442 0.242-1.069-0.2-1.4s-1.069-0.242-1.4 0.2c-0.041 0.050-0.181 0.206-0.181 0.206-0.1 0.105-0.237 0.239-0.408 0.382-0.243 0.203-0.549 0.419-0.91 0.6-0.48 0.239-1.050 0.412-1.701 0.412s-1.221-0.173-1.701-0.413c-0.36-0.18-0.667-0.397-0.91-0.6-0.171-0.143-0.308-0.277-0.408-0.382-0.14-0.155-0.181-0.205-0.181-0.205-0.331-0.442-0.958-0.531-1.4-0.2s-0.531 0.958-0.2 1.4zM9 10c0.552 0 1-0.448 1-1s-0.448-1-1-1-1 0.448-1 1 0.448 1 1 1zM15 10c0.552 0 1-0.448 1-1s-0.448-1-1-1-1 0.448-1 1 0.448 1 1 1z"></path>
</symbol>
<symbol id="icon-user" viewBox="0 0 24 24">
<path d="M21 21v-2c0-1.38-0.561-2.632-1.464-3.536s-2.156-1.464-3.536-1.464h-8c-1.38 0-2.632 0.561-3.536 1.464s-1.464 2.156-1.464 3.536v2c0 0.552 0.448 1 1 1s1-0.448 1-1v-2c0-0.829 0.335-1.577 0.879-2.121s1.292-0.879 2.121-0.879h8c0.829 0 1.577 0.335 2.121 0.879s0.879 1.292 0.879 2.121v2c0 0.552 0.448 1 1 1s1-0.448 1-1zM17 7c0-1.38-0.561-2.632-1.464-3.536s-2.156-1.464-3.536-1.464-2.632 0.561-3.536 1.464-1.464 2.156-1.464 3.536 0.561 2.632 1.464 3.536 2.156 1.464 3.536 1.464 2.632-0.561 3.536-1.464 1.464-2.156 1.464-3.536zM15 7c0 0.829-0.335 1.577-0.879 2.121s-1.292 0.879-2.121 0.879-1.577-0.335-2.121-0.879-0.879-1.292-0.879-2.121 0.335-1.577 0.879-2.121 1.292-0.879 2.121-0.879 1.577 0.335 2.121 0.879 0.879 1.292 0.879 2.121z"></path>
</symbol>
<symbol id="icon-upload-cloud" viewBox="0 0 24 24">
<path d="M11 14.414v6.586c0 0.552 0.448 1 1 1s1-0.448 1-1v-6.586l2.293 2.293c0.391 0.391 1.024 0.391 1.414 0s0.391-1.024 0-1.414l-4-4c-0.092-0.092-0.202-0.166-0.324-0.217s-0.253-0.076-0.383-0.076c-0.256 0-0.512 0.098-0.707 0.293l-4 4c-0.391 0.391-0.391 1.024 0 1.414s1.024 0.391 1.414 0zM20.869 19.268c1.454-0.793 2.451-2.102 2.884-3.574s0.305-3.112-0.488-4.566c-0.679-1.245-1.737-2.155-2.959-2.663-0.724-0.301-1.505-0.46-2.299-0.465h-0.527c-0.725-2.057-2.144-3.708-3.917-4.752-1.983-1.168-4.415-1.581-6.821-0.959s-4.333 2.162-5.502 4.145-1.581 4.415-0.959 6.821c0.372 1.437 1.073 2.709 1.975 3.713 0.369 0.411 1.002 0.444 1.412 0.075s0.444-1.002 0.075-1.412c-0.688-0.765-1.235-1.75-1.526-2.877-0.484-1.872-0.164-3.761 0.746-5.305s2.407-2.74 4.279-3.224 3.761-0.164 5.305 0.746 2.74 2.407 3.224 4.279c0.116 0.435 0.506 0.75 0.969 0.75h1.253c0.536 0.004 1.061 0.111 1.545 0.312 0.815 0.339 1.517 0.943 1.97 1.773 0.529 0.97 0.615 2.061 0.325 3.044s-0.953 1.854-1.923 2.382c-0.485 0.264-0.664 0.872-0.399 1.357s0.872 0.664 1.357 0.399z"></path>
</symbol>
<symbol id="icon-users" viewBox="0 0 24 24">
<path d="M18 21v-2c0-1.38-0.561-2.632-1.464-3.536s-2.156-1.464-3.536-1.464h-8c-1.38 0-2.632 0.561-3.536 1.464s-1.464 2.156-1.464 3.536v2c0 0.552 0.448 1 1 1s1-0.448 1-1v-2c0-0.829 0.335-1.577 0.879-2.121s1.292-0.879 2.121-0.879h8c0.829 0 1.577 0.335 2.121 0.879s0.879 1.292 0.879 2.121v2c0 0.552 0.448 1 1 1s1-0.448 1-1zM14 7c0-1.38-0.561-2.632-1.464-3.536s-2.156-1.464-3.536-1.464-2.632 0.561-3.536 1.464-1.464 2.156-1.464 3.536 0.561 2.632 1.464 3.536 2.156 1.464 3.536 1.464 2.632-0.561 3.536-1.464 1.464-2.156 1.464-3.536zM12 7c0 0.829-0.335 1.577-0.879 2.121s-1.292 0.879-2.121 0.879-1.577-0.335-2.121-0.879-0.879-1.292-0.879-2.121 0.335-1.577 0.879-2.121 1.292-0.879 2.121-0.879 1.577 0.335 2.121 0.879 0.879 1.292 0.879 2.121zM24 21v-2c-0.001-1.245-0.457-2.385-1.215-3.261-0.652-0.753-1.528-1.311-2.529-1.576-0.534-0.141-1.081 0.177-1.222 0.711s0.177 1.081 0.711 1.222c0.607 0.161 1.136 0.498 1.528 0.952 0.454 0.526 0.726 1.206 0.727 1.952v2c0 0.552 0.448 1 1 1s1-0.448 1-1zM15.752 4.099c0.803 0.206 1.445 0.715 1.837 1.377s0.531 1.47 0.325 2.273c-0.176 0.688-0.575 1.256-1.105 1.652-0.314 0.235-0.675 0.409-1.063 0.511-0.534 0.14-0.854 0.687-0.713 1.221s0.687 0.854 1.221 0.713c0.637-0.167 1.232-0.455 1.752-0.844 0.884-0.66 1.552-1.613 1.845-2.758 0.342-1.337 0.11-2.689-0.542-3.788s-1.725-1.953-3.062-2.296c-0.535-0.137-1.080 0.186-1.217 0.721s0.186 1.080 0.721 1.217z"></path>
</symbol>
</defs>
</svg>
